<mxfile host="Electron" modified="2023-12-07T09:36:23.746Z" agent="Mozilla/5.0 (Windows NT 10.0; Win64; x64) AppleWebKit/537.36 (KHTML, like Gecko) draw.io/22.1.2 Chrome/114.0.5735.289 Electron/25.9.4 Safari/537.36" etag="pIt1mYqeCu5OU2zKbw2h" version="22.1.2" type="device">
  <diagram name="Page-1" id="Yo5sSHtU5VChRxMXDs1j">
    <mxGraphModel dx="1195" dy="703" grid="1" gridSize="10" guides="1" tooltips="1" connect="1" arrows="1" fold="1" page="1" pageScale="1" pageWidth="1169" pageHeight="827" math="0" shadow="0">
      <root>
        <mxCell id="0" />
        <mxCell id="1" parent="0" />
        <mxCell id="_KhpX-SLW_fzRWA8NdBp-1" value="&lt;font style=&quot;font-size: 20px;&quot;&gt;HQ&lt;/font&gt;" style="rounded=0;whiteSpace=wrap;html=1;fillColor=#dae8fc;strokeColor=#6c8ebf;" vertex="1" parent="1">
          <mxGeometry x="50" y="310" width="170" height="160" as="geometry" />
        </mxCell>
        <mxCell id="_KhpX-SLW_fzRWA8NdBp-2" value="" style="rounded=0;whiteSpace=wrap;html=1;fillColor=#f8cecc;strokeColor=#b85450;" vertex="1" parent="1">
          <mxGeometry x="210" y="318" width="20" height="144" as="geometry" />
        </mxCell>
        <mxCell id="_KhpX-SLW_fzRWA8NdBp-4" value="Workers" style="text;html=1;strokeColor=none;fillColor=none;align=center;verticalAlign=middle;whiteSpace=wrap;rounded=0;rotation=-90;" vertex="1" parent="1">
          <mxGeometry x="190" y="383.75" width="60" height="12.5" as="geometry" />
        </mxCell>
        <mxCell id="_KhpX-SLW_fzRWA8NdBp-6" value="&lt;font style=&quot;font-size: 20px;&quot;&gt;Node&lt;/font&gt;" style="rounded=0;whiteSpace=wrap;html=1;fillColor=#fff2cc;strokeColor=#d6b656;" vertex="1" parent="1">
          <mxGeometry x="350" y="210" width="80" height="80" as="geometry" />
        </mxCell>
        <mxCell id="_KhpX-SLW_fzRWA8NdBp-9" value="&lt;font style=&quot;font-size: 20px;&quot;&gt;Node&lt;/font&gt;" style="rounded=0;whiteSpace=wrap;html=1;fillColor=#ffe6cc;strokeColor=#d79b00;" vertex="1" parent="1">
          <mxGeometry x="480" y="290" width="80" height="80" as="geometry" />
        </mxCell>
        <mxCell id="_KhpX-SLW_fzRWA8NdBp-10" value="&lt;font style=&quot;font-size: 20px;&quot;&gt;Node&lt;/font&gt;" style="rounded=0;whiteSpace=wrap;html=1;fillColor=#fff2cc;strokeColor=#d6b656;" vertex="1" parent="1">
          <mxGeometry x="370" y="423.75" width="80" height="80" as="geometry" />
        </mxCell>
        <mxCell id="_KhpX-SLW_fzRWA8NdBp-11" value="&lt;font style=&quot;font-size: 20px;&quot;&gt;Node&lt;/font&gt;" style="rounded=0;whiteSpace=wrap;html=1;fillColor=#ffe6cc;strokeColor=#d79b00;" vertex="1" parent="1">
          <mxGeometry x="230" y="570" width="80" height="80" as="geometry" />
        </mxCell>
        <mxCell id="_KhpX-SLW_fzRWA8NdBp-12" value="&lt;font style=&quot;font-size: 20px;&quot;&gt;Node&lt;/font&gt;" style="rounded=0;whiteSpace=wrap;html=1;fillColor=#fff2cc;strokeColor=#d6b656;" vertex="1" parent="1">
          <mxGeometry x="510" y="500" width="80" height="80" as="geometry" />
        </mxCell>
        <mxCell id="_KhpX-SLW_fzRWA8NdBp-13" value="" style="endArrow=classic;startArrow=classic;html=1;rounded=0;dashed=1;dashPattern=8 8;exitX=1;exitY=0;exitDx=0;exitDy=0;entryX=0;entryY=0.5;entryDx=0;entryDy=0;edgeStyle=orthogonalEdgeStyle;curved=1;" edge="1" parent="1" source="_KhpX-SLW_fzRWA8NdBp-2" target="_KhpX-SLW_fzRWA8NdBp-6">
          <mxGeometry width="50" height="50" relative="1" as="geometry">
            <mxPoint x="670" y="430" as="sourcePoint" />
            <mxPoint x="720" y="380" as="targetPoint" />
            <Array as="points">
              <mxPoint x="280" y="318" />
              <mxPoint x="280" y="250" />
            </Array>
          </mxGeometry>
        </mxCell>
        <mxCell id="_KhpX-SLW_fzRWA8NdBp-15" value="" style="endArrow=classic;startArrow=classic;html=1;rounded=0;dashed=1;dashPattern=8 8;exitX=1;exitY=0.25;exitDx=0;exitDy=0;entryX=0;entryY=0.5;entryDx=0;entryDy=0;edgeStyle=orthogonalEdgeStyle;curved=1;" edge="1" parent="1" source="_KhpX-SLW_fzRWA8NdBp-2" target="_KhpX-SLW_fzRWA8NdBp-9">
          <mxGeometry width="50" height="50" relative="1" as="geometry">
            <mxPoint x="290" y="378" as="sourcePoint" />
            <mxPoint x="380" y="310" as="targetPoint" />
          </mxGeometry>
        </mxCell>
        <mxCell id="_KhpX-SLW_fzRWA8NdBp-16" value="" style="endArrow=classic;startArrow=classic;html=1;rounded=0;dashed=1;dashPattern=8 8;exitX=1;exitY=0.5;exitDx=0;exitDy=0;entryX=0;entryY=0.5;entryDx=0;entryDy=0;edgeStyle=orthogonalEdgeStyle;curved=1;" edge="1" parent="1" source="_KhpX-SLW_fzRWA8NdBp-2" target="_KhpX-SLW_fzRWA8NdBp-10">
          <mxGeometry width="50" height="50" relative="1" as="geometry">
            <mxPoint x="310" y="383.75" as="sourcePoint" />
            <mxPoint x="550" y="366" as="targetPoint" />
            <Array as="points">
              <mxPoint x="320" y="390" />
              <mxPoint x="320" y="464" />
            </Array>
          </mxGeometry>
        </mxCell>
        <mxCell id="_KhpX-SLW_fzRWA8NdBp-18" value="" style="endArrow=classic;startArrow=classic;html=1;rounded=0;dashed=1;dashPattern=8 8;exitX=1;exitY=0.75;exitDx=0;exitDy=0;edgeStyle=orthogonalEdgeStyle;curved=1;entryX=0;entryY=0.5;entryDx=0;entryDy=0;" edge="1" parent="1" source="_KhpX-SLW_fzRWA8NdBp-2" target="_KhpX-SLW_fzRWA8NdBp-12">
          <mxGeometry width="50" height="50" relative="1" as="geometry">
            <mxPoint x="270" y="400" as="sourcePoint" />
            <mxPoint x="480" y="540" as="targetPoint" />
            <Array as="points">
              <mxPoint x="310" y="426" />
              <mxPoint x="310" y="540" />
            </Array>
          </mxGeometry>
        </mxCell>
        <mxCell id="_KhpX-SLW_fzRWA8NdBp-19" value="" style="endArrow=classic;startArrow=classic;html=1;rounded=0;dashed=1;dashPattern=8 8;exitX=1;exitY=1;exitDx=0;exitDy=0;entryX=0;entryY=0.5;entryDx=0;entryDy=0;edgeStyle=orthogonalEdgeStyle;curved=1;" edge="1" parent="1" source="_KhpX-SLW_fzRWA8NdBp-2" target="_KhpX-SLW_fzRWA8NdBp-11">
          <mxGeometry width="50" height="50" relative="1" as="geometry">
            <mxPoint x="350" y="580" as="sourcePoint" />
            <mxPoint x="460" y="654" as="targetPoint" />
            <Array as="points">
              <mxPoint x="290" y="462" />
              <mxPoint x="290" y="516" />
              <mxPoint x="180" y="516" />
              <mxPoint x="180" y="610" />
            </Array>
          </mxGeometry>
        </mxCell>
      </root>
    </mxGraphModel>
  </diagram>
</mxfile>
